<?xml version="1.0" standalone="no"?>
<!DOCTYPE svg PUBLIC "-//W3C//DTD SVG 20010904//EN"
 "http://www.w3.org/TR/2001/REC-SVG-20010904/DTD/svg10.dtd">
<svg version="1.0" xmlns="http://www.w3.org/2000/svg"
 width="512.000000pt" height="512.000000pt" viewBox="0 0 512.000000 512.000000"
 preserveAspectRatio="xMidYMid meet">

<g transform="translate(0.000000,512.000000) scale(0.100000,-0.100000)"
fill="#000000" stroke="none">
<path d="M2395 5110 c-491 -78 -870 -422 -996 -905 -21 -80 -24 -112 -23 -280
0 -172 2 -199 26 -286 33 -123 78 -229 138 -329 l48 -79 -647 -3 -646 -3 -60
-24 c-82 -33 -173 -124 -206 -206 l-24 -60 0 -1050 0 -1050 32 -67 c58 -122
166 -201 300 -219 37 -4 435 -9 883 -9 l815 -1 230 -259 c127 -142 240 -263
253 -269 29 -14 55 -14 84 0 13 6 127 127 253 269 l230 259 815 1 c448 0 846
5 883 9 133 18 243 98 301 221 l31 65 0 1050 0 1050 -23 57 c-27 67 -97 148
-158 184 -90 53 -99 54 -776 54 l-626 0 48 80 c61 102 105 208 137 329 34 131
43 356 19 486 -90 485 -444 858 -916 966 -99 23 -333 33 -425 19z m405 -220
c167 -41 339 -140 465 -267 118 -119 199 -257 252 -432 24 -79 27 -100 27
-261 0 -207 -14 -274 -93 -435 -111 -227 -292 -396 -523 -490 -122 -49 -222
-68 -368 -68 -200 0 -355 43 -520 145 -91 55 -244 199 -298 279 -51 76 -109
200 -138 295 -26 83 -28 102 -28 269 0 167 2 186 27 266 37 121 69 189 132
285 151 226 382 377 655 429 103 20 299 13 410 -15z m-961 -1913 c431 -324
1011 -324 1442 0 l70 53 710 0 c616 0 715 -2 746 -15 50 -21 72 -42 94 -90 18
-38 19 -91 19 -1037 0 -680 -3 -1006 -11 -1025 -13 -35 -54 -79 -94 -101 -27
-15 -116 -17 -925 -22 l-895 -5 -211 -234 c-116 -129 -216 -237 -221 -238 -6
-2 -103 99 -215 224 -113 125 -211 233 -219 240 -12 10 -224 13 -905 15 -806
3 -892 5 -919 20 -40 22 -81 66 -94 101 -8 19 -11 345 -11 1023 0 872 2 999
15 1031 21 50 42 72 90 94 38 17 83 19 752 19 l712 0 70 -53z"/>
<path d="M2438 4671 c-75 -24 -115 -50 -172 -111 -64 -69 -98 -145 -104 -236
-4 -71 -4 -74 26 -103 66 -66 156 -24 171 79 16 119 93 190 203 190 112 -1
198 -90 198 -205 0 -98 -66 -175 -167 -195 -135 -26 -135 -26 -131 -275 l3
-197 28 -24 c30 -26 83 -32 118 -14 38 21 49 62 49 192 l0 124 38 13 c56 20
138 78 172 121 17 21 43 65 58 97 24 52 27 69 27 163 0 92 -4 112 -27 162 -86
185 -299 280 -490 219z"/>
<path d="M2507 3349 c-22 -13 -47 -61 -47 -93 0 -14 13 -40 29 -58 24 -27 36
-33 71 -33 35 0 47 6 71 33 16 18 29 44 29 58 0 33 -25 81 -49 94 -25 13 -81
12 -104 -1z"/>
<path d="M1010 2444 c-162 -34 -321 -158 -392 -304 -47 -97 -62 -165 -62 -270
1 -157 55 -284 173 -401 119 -118 240 -169 405 -169 105 0 188 20 275 66 l64
34 48 -45 c67 -63 123 -71 169 -25 46 46 38 102 -26 170 l-45 48 30 59 c48 95
65 167 65 273 0 162 -56 294 -175 411 -139 138 -335 195 -529 153z m285 -223
c181 -84 262 -278 199 -473 -9 -27 -19 -48 -23 -48 -4 0 -27 20 -51 45 -77 79
-156 80 -195 4 -23 -44 -11 -80 46 -143 27 -30 49 -56 49 -58 0 -3 -19 -14
-42 -24 -33 -15 -66 -19 -148 -19 -101 0 -108 1 -168 34 -109 59 -178 154
-202 277 -36 185 96 386 287 434 69 17 177 5 248 -29z"/>
<path d="M2005 2451 c-11 -5 -29 -19 -40 -31 -19 -21 -20 -38 -23 -379 -3
-386 2 -442 46 -524 35 -65 117 -138 200 -179 64 -32 71 -33 187 -33 120 0
122 0 196 37 92 46 167 117 206 195 l28 58 3 397 c2 269 -1 404 -8 418 -29 54
-116 62 -161 14 l-24 -26 -5 -381 c-3 -264 -9 -388 -17 -402 -61 -106 -229
-149 -338 -86 -114 65 -114 67 -115 504 0 226 -4 365 -10 378 -12 22 -61 49
-87 48 -10 0 -27 -4 -38 -8z"/>
<path d="M3221 2446 c-51 -28 -50 -25 -51 -574 l0 -514 29 -29 c39 -38 97 -40
138 -5 l28 24 3 522 3 521 -35 35 c-37 37 -73 43 -115 20z"/>
<path d="M3805 2451 c-37 -16 -60 -51 -60 -93 0 -33 6 -45 33 -69 l32 -29 225
0 c124 0 225 -3 225 -6 0 -3 -117 -185 -260 -405 -143 -219 -265 -410 -270
-425 -13 -34 3 -88 33 -109 32 -22 732 -22 764 0 34 24 47 76 29 118 -24 59
-36 61 -302 67 l-240 5 268 410 c180 277 268 419 268 437 0 15 -5 39 -12 53
-24 53 -39 55 -390 54 -178 0 -332 -4 -343 -8z"/>
</g>
</svg>
